<svg width="28" height="30" viewBox="0 0 28 30" fill="none" xmlns="http://www.w3.org/2000/svg">
<path d="M19.445 0H8.05498L0 8.05499V21.6455L8.05498 29.7005H19.445L27.5 21.6455V8.05499L19.445 0ZM26.3614 8.07921L21.6859 10.0173L17.4868 5.81816L19.4248 1.14264L26.3654 8.08325L26.3614 8.07921ZM10.6754 13.7116V16.7721H10.6835L13.3402 19.0251V20.5594L10.6835 23.3696H10.6754L6.3269 19.0251V11.0872L7.97827 11.7696V12.5932L10.6794 13.7116H10.6754ZM11.499 16.7641V12.4035L6.6176 10.3806L10.6754 6.32286H16.8246L20.8824 10.3806L16.001 12.4035V16.7641H11.499ZM14.1639 19.0251L16.8206 16.7721H16.8287V13.7116L19.5298 12.5932V11.7696L21.1812 11.0872V19.0251L16.8327 23.3736H16.8246L14.1679 20.5594V19.0251H14.1639ZM18.6537 0.823668L16.7156 5.49919H10.7804L8.84635 0.823668H18.6537ZM8.08325 1.1386L10.0213 5.81412L5.81816 10.0173L1.14263 8.08325L8.08325 1.1386ZM0.827703 8.84231L5.50323 10.7804V18.9201L0.827703 20.8582V8.84635V8.84231ZM1.14263 21.6172L5.81816 19.6792L10.0173 23.8783L8.07921 28.5538L1.1386 21.6132L1.14263 21.6172ZM8.83424 28.8889L10.7804 24.1973L13.752 26.4462L16.7196 24.1973L18.6658 28.8889H8.83424ZM19.4208 28.5578L17.4827 23.8823L21.6859 19.6832L26.3614 21.6213L19.4208 28.5619V28.5578ZM26.6763 20.8541L22.0008 18.9161V10.7723L26.6763 8.83424V20.8501V20.8541Z" fill="white"/>
</svg>
