<svg width="188" height="48" viewBox="0 0 188 48" fill="none" xmlns="http://www.w3.org/2000/svg">
<path d="M64.6134 14.447H61.5074L53.2463 33.3704L53.2202 33.4291H56.6852L58.6167 28.9006H67.4323L69.3246 33.4095V33.4356H72.907L64.6264 14.4797L64.6134 14.4536V14.447ZM66.1925 25.8924H59.8565L63.0082 18.5319L66.186 25.8924H66.1925Z" fill="#1E376C"/>
<path d="M81.3443 22.46C77.8336 21.6248 76.9266 21.018 76.9266 19.5237C76.9266 18.199 78.1403 17.3116 79.9413 17.3116C81.6183 17.3116 83.2757 17.938 85.0049 19.2366L85.0376 19.2626L86.832 16.7374L86.8516 16.7047L86.819 16.6786C84.8353 15.0865 82.6036 14.31 79.987 14.31C76.1893 14.31 73.54 16.5742 73.54 19.8173C73.54 23.3083 75.7456 24.5025 79.8173 25.4878C83.3932 26.31 84.0196 27.0669 84.0196 28.3458C84.0196 29.7684 82.7341 30.6884 80.7374 30.6884C78.6036 30.6884 76.7831 29.938 74.8451 28.261L74.8124 28.2349L72.7766 30.6558L72.8027 30.6819C75.0082 32.6525 77.7227 33.6966 80.6526 33.6966C84.7439 33.6966 87.3932 31.4715 87.3932 28.0261C87.3932 24.5808 84.9723 23.3475 81.3312 22.4666" fill="#1E376C"/>
<path d="M92.5547 14.5775H89.1811V33.4225H100.516V30.3426H92.5547V14.5775Z" fill="#1E376C"/>
<path d="M112.431 14.447H109.325L101.064 33.3704L101.038 33.4291H104.502L106.434 28.9006H115.25L117.142 33.4095L117.155 33.4356H120.724L112.444 14.4797L112.431 14.4536V14.447ZM114.003 25.8924H107.667L110.819 18.5319L113.997 25.8924H114.003Z" fill="#1E376C"/>
<path d="M135.008 27.478L125.031 14.5906L125.018 14.5775H121.905V33.4225H125.227V20.1501L135.498 33.4095L135.511 33.4225H138.33V14.5775H135.008V27.478Z" fill="#1E376C"/>
<path d="M141.638 24.6917H152.418V23.2105H141.638V16.0914H153.514V14.6102H140.104V33.3899H153.638V31.9087H141.638V24.6917Z" fill="#1E376C"/>
<path d="M163.041 25.0245H169.599V30.0359C168.516 30.9103 166.454 32.2219 163.752 32.2219C160.02 32.2219 156 29.6574 156 24.0326V23.9804C156 19.9543 158.891 15.7912 163.726 15.7912C166.186 15.7912 167.719 16.633 169.266 17.8923L169.638 18.199L170.61 17.018L170.238 16.7113C168.496 15.2692 166.728 14.31 163.746 14.31C161.077 14.31 158.669 15.3671 156.953 17.292C155.347 19.093 154.46 21.4812 154.46 24.0065V24.0587C154.46 29.7357 158.264 33.7031 163.719 33.7031C166.356 33.7031 168.927 32.6786 170.962 30.832L171.126 30.6884V23.4976H163.034V25.031L163.041 25.0245Z" fill="#1E376C"/>
<path d="M174.44 31.9087V24.6917H185.22V23.2105H174.44V16.0914H186.316V14.6102H172.907V33.3899H186.44V31.9087H174.44Z" fill="#1E376C"/>
<path d="M31.4258 0H13.0179L0 13.0179V34.9821L13.0179 48H31.4258L44.4437 34.9821V13.0179L31.4258 0ZM42.5971 13.0636L35.0408 16.1958L28.2545 9.40946L31.3866 1.85318L42.6036 13.0701L42.5971 13.0636ZM17.2529 22.1664V27.1126H17.2659L21.553 30.7537V33.2333L17.2594 37.7749H17.2463L10.2186 30.7537V17.925L12.8874 19.0277V20.3589L17.2463 22.1664H17.2529ZM18.584 27.0995V20.0522L10.6949 16.783L17.2529 10.2251H27.1909L33.7488 16.783L25.8597 20.0522V27.0995H18.584ZM22.8907 30.7471L27.1778 27.106H27.1909V22.1599L31.5498 20.3524V19.0212L34.2186 17.9184V30.7471L27.1909 37.7749H27.1778L22.8842 33.2267V30.7406L22.8907 30.7471ZM30.1468 1.33769L27.0147 8.89396H17.4225L14.2904 1.33769H30.1403H30.1468ZM13.0636 1.84013L16.1958 9.39641L9.40294 16.1892L1.84666 13.0571L13.0701 1.84013H13.0636ZM1.33116 14.2969L8.88744 17.429V30.584L1.33116 33.7161V14.3034V14.2969ZM1.84666 34.9429L9.40294 31.8108L16.1892 38.5971L13.0571 46.1533L1.84666 34.9429ZM14.2773 46.6949L17.4225 39.1126L22.2251 42.7471L27.0212 39.1126L30.1664 46.6949H14.2773ZM31.3866 46.1533L28.2545 38.5971L35.0408 31.8108L42.5971 34.9429L31.3801 46.1533H31.3866ZM43.106 33.7096L35.5498 30.5775V17.416L43.106 14.2838V33.7031V33.7096Z" fill="#1E376C"/>
<mask id="mask0_220_17369" style="mask-type:luminance" maskUnits="userSpaceOnUse" x="1" y="1" width="43" height="46">
<path d="M22.2186 42.7472L17.416 39.1126L14.2708 46.695H30.1599L27.0147 39.1126L22.2186 42.7472ZM1.84664 34.9429L13.0636 46.1534L16.1957 38.5971L9.40945 31.8108L1.85317 34.9429H1.84664ZM28.2545 38.6036L31.3866 46.1599L42.6036 34.9494L35.0473 31.8173L28.261 38.6036H28.2545ZM1.33115 33.7096L8.88743 30.584V17.429L1.33115 14.2969V33.7096ZM35.5563 17.416V30.5775L43.1125 33.7031V14.2839L35.5563 17.416ZM28.2545 9.40294L35.0408 16.1892L42.597 13.0571L31.3801 1.84014L28.2479 9.39642L28.2545 9.40294ZM1.84012 13.0571L9.3964 16.1892L16.1892 9.39642L13.0571 1.84014L1.84012 13.0571ZM14.2904 1.33769L17.4225 8.89397H27.0147L30.1468 1.33769H14.2969H14.2904Z" fill="white"/>
</mask>
<g mask="url(#mask0_220_17369)">
<path d="M43.106 1.33769H1.33115V46.695H43.106V1.33769Z" fill="url(#paint0_linear_220_17369)"/>
</g>
<path d="M143.321 41.2789H143.837V43.2887H146.447V41.2789H146.956V45.8075H146.447V43.7716H143.837V45.8075H143.321V41.2789Z" fill="#1E376C"/>
<path d="M149.057 40.2936H149.677V40.8744H149.057V40.2936ZM149.109 41.2789H149.618V45.8075H149.109V41.2789Z" fill="#1E376C"/>
<path d="M151.569 45.4616L154.499 41.7357H151.667V41.2789H155.197V41.6182L152.261 45.3442H155.197V45.8075H151.569V45.4616Z" fill="#1E376C"/>
<path d="M157.083 41.2789H157.599L159.25 43.752L160.9 41.2789H161.416V45.8075H160.907V42.1403L159.256 44.5611H159.23L157.579 42.1468V45.8075H157.083V41.2789Z" fill="#1E376C"/>
<path d="M163.524 41.2789H166.799V41.7422H164.033V43.2887H166.506V43.752H164.033V45.3377H166.832V45.8075H163.524V41.2789Z" fill="#1E376C"/>
<path d="M58.3817 43.9086V41.2789H58.8907V43.876C58.8907 44.8548 59.4062 45.4029 60.274 45.4029C61.1419 45.4029 61.6378 44.9005 61.6378 43.9086V41.2789H62.1468V43.8695C62.1468 45.1876 61.3899 45.8727 60.261 45.8727C59.1321 45.8727 58.3817 45.1876 58.3817 43.9086ZM59.367 40.3132H59.9674V40.894H59.367V40.3132ZM60.5742 40.3132H61.1745V40.894H60.5742V40.3132Z" fill="#1E376C"/>
<path d="M63.7977 41.2789H64.372L65.9772 45.181L67.5954 41.2789H68.1436L66.199 45.8401H65.7488L63.7977 41.2789Z" fill="#1E376C"/>
<path d="M69.8662 41.2789H73.1354V41.7422H70.3752V43.2887H72.8483V43.752H70.3752V45.3377H73.168V45.8075H69.8662V41.2789Z" fill="#1E376C"/>
<path d="M75.0277 41.2789H75.5041L78.3556 44.907V41.2789H78.8581V45.8075H78.447L75.5237 42.0946V45.8075H75.0277V41.2789Z" fill="#1E376C"/>
<path d="M80.9592 41.2789H81.4747V45.3311H84.0196V45.8075H80.9592V41.2789Z" fill="#1E376C"/>
<path d="M85.7879 40.2936H86.4078V40.8744H85.7879V40.2936ZM85.8401 41.2789H86.3491V45.8075H85.8401V41.2789Z" fill="#1E376C"/>
<path d="M88.5024 41.2789H89.0114V43.9804L91.615 41.2789H92.2741L90.3295 43.2561L92.3589 45.8075H91.7129L89.9772 43.615L89.0114 44.5872V45.8075H88.5024V41.2789Z" fill="#1E376C"/>
<path d="M99.3018 45.1681C98.8907 45.6118 98.4078 45.8728 97.8206 45.8728C97.0049 45.8728 96.398 45.3638 96.398 44.6069V44.5939C96.398 43.9935 96.8026 43.5563 97.4878 43.2888C97.1745 42.9299 97.0375 42.6493 97.0375 42.2904V42.2774C97.0375 41.6836 97.5139 41.2007 98.2316 41.2007C98.8646 41.2007 99.3279 41.6575 99.3279 42.2187V42.2317C99.3279 42.8059 98.9233 43.1779 98.2578 43.4063L99.2953 44.4568C99.4976 44.1632 99.6737 43.8239 99.8369 43.4454L100.261 43.6412C100.059 44.0653 99.8564 44.4568 99.6085 44.7766L100.398 45.5857L100.007 45.8859L99.2953 45.155L99.3018 45.1681ZM98.9886 44.8484L97.7814 43.602C97.1811 43.8239 96.9135 44.1893 96.9135 44.5743V44.5873C96.9135 45.0702 97.3051 45.4422 97.8597 45.4422C98.2839 45.4422 98.6623 45.2138 98.9886 44.8549M98.8516 42.2643V42.2513C98.8516 41.8924 98.5775 41.6249 98.2121 41.6249C97.8075 41.6249 97.5269 41.912 97.5269 42.2774V42.2904C97.5269 42.558 97.6378 42.7537 97.9772 43.1257C98.5514 42.9299 98.8516 42.6559 98.8516 42.2643Z" fill="#1E376C"/>
<path d="M124.339 43.5563V43.5433C124.339 42.3035 125.253 41.2007 126.61 41.2007C127.374 41.2007 127.843 41.4226 128.3 41.801L127.967 42.1926C127.622 41.8859 127.23 41.6771 126.591 41.6771C125.586 41.6771 124.868 42.5253 124.868 43.5302V43.5433C124.868 44.6265 125.56 45.4226 126.662 45.4226C127.178 45.4226 127.661 45.2203 127.967 44.9723V43.85H126.591V43.3932H128.457V45.2007C128.039 45.5727 127.4 45.8924 126.643 45.8924C125.22 45.8924 124.339 44.8549 124.339 43.5629" fill="#1E376C"/>
<path d="M52.3524 43.5563V43.5433C52.3524 42.3035 53.2659 41.2007 54.6232 41.2007C55.3866 41.2007 55.8564 41.4226 56.3132 41.801L55.9804 42.1926C55.6346 41.8859 55.2431 41.6771 54.6036 41.6771C53.5987 41.6771 52.8809 42.5253 52.8809 43.5302V43.5433C52.8809 44.6265 53.5726 45.4226 54.6754 45.4226C55.1909 45.4226 55.6737 45.2203 55.9804 44.9723V43.85H54.6036V43.3932H56.4698V45.2007C56.0522 45.5727 55.4127 45.8924 54.6558 45.8924C53.2333 45.8924 52.3524 44.8549 52.3524 43.5629" fill="#1E376C"/>
<path d="M119.55 41.2789H122.819V41.7422H120.059V43.2887H122.532V43.752H120.059V45.3377H122.852V45.8075H119.55V41.2789Z" fill="#1E376C"/>
<path d="M104.646 41.2789H107.922V41.7422H105.155V43.2887H107.628V43.752H105.155V45.3377H107.948V45.8075H104.646V41.2789Z" fill="#1E376C"/>
<path d="M130.049 41.2789H131.993C132.548 41.2789 132.998 41.4486 133.279 41.7292C133.501 41.951 133.631 42.2642 133.631 42.6231V42.6362C133.631 43.3866 133.116 43.8238 132.405 43.9543L133.794 45.8075H133.168L131.856 44.0456H130.564V45.8075H130.055V41.2789H130.049ZM131.954 43.5889C132.633 43.5889 133.116 43.243 133.116 42.6558V42.6427C133.116 42.0881 132.692 41.7488 131.961 41.7488H130.564V43.5889H131.954Z" fill="#1E376C"/>
<path d="M109.729 41.2789H110.206L113.057 44.907V41.2789H113.56V45.8075H113.148L110.225 42.0946V45.8075H109.729V41.2789Z" fill="#1E376C"/>
<path d="M135.067 41.2789H138.336V41.7422H135.576V43.2887H138.049V43.752H135.576V45.3377H138.369V45.8075H135.067V41.2789Z" fill="#1E376C"/>
<path d="M116.457 41.7488H114.936V41.2789H118.493V41.7488H116.972V45.8075H116.457V41.7488Z" fill="#1E376C"/>
<path d="M169.879 41.7488H168.359V41.2789H171.922V41.7488H170.401V45.8075H169.879V41.7488Z" fill="#1E376C"/>
<path d="M173.703 41.2789H174.212V45.3311H176.763V45.8075H173.703V41.2789Z" fill="#1E376C"/>
<path d="M178.532 41.2789H181.807V41.7422H179.041V43.2887H181.514V43.752H179.041V45.3377H181.84V45.8075H178.532V41.2789Z" fill="#1E376C"/>
<path d="M183.693 41.2789H185.638C186.192 41.2789 186.643 41.4486 186.923 41.7292C187.145 41.951 187.276 42.2642 187.276 42.6231V42.6362C187.276 43.3866 186.76 43.8238 186.049 43.9543L187.439 45.8075H186.812L185.501 44.0456H184.209V45.8075H183.7V41.2789H183.693ZM185.592 43.5889C186.271 43.5889 186.754 43.243 186.754 42.6558V42.6427C186.754 42.0881 186.33 41.7488 185.599 41.7488H184.202V43.5889H185.592Z" fill="#1E376C"/>
<defs>
<linearGradient id="paint0_linear_220_17369" x1="-1.5957" y1="24.8218" x2="40.1792" y2="24.8218" gradientUnits="userSpaceOnUse">
<stop stop-color="#C99E52"/>
<stop offset="0.18" stop-color="#C7962F"/>
<stop offset="0.22" stop-color="#C89832"/>
<stop offset="0.25" stop-color="#CCA03B"/>
<stop offset="0.27" stop-color="#D4AE4C"/>
<stop offset="0.3" stop-color="#DFC263"/>
<stop offset="0.32" stop-color="#ECDB80"/>
<stop offset="0.33" stop-color="#F1E38A"/>
<stop offset="0.49" stop-color="#FEC96C"/>
<stop offset="0.62" stop-color="#D7AF50"/>
<stop offset="0.77" stop-color="#F7BD56"/>
<stop offset="0.85" stop-color="#D6A93A"/>
<stop offset="1" stop-color="#D3A35B"/>
</linearGradient>
</defs>
</svg>
