<svg width="171" height="44" viewBox="0 0 171 44" fill="none" xmlns="http://www.w3.org/2000/svg">
<path d="M59.2349 13.2432H56.3877L48.8151 30.5895L48.7912 30.6434H51.9673L53.7379 26.4922H61.8189L63.5535 30.6254V30.6494H66.8374L59.2468 13.2731L59.2349 13.2491V13.2432ZM60.6764 23.7347H54.8684L57.7574 16.9876L60.6704 23.7347H60.6764Z" fill="white"/>
<path d="M74.5715 20.5881C71.3534 19.8225 70.522 19.2662 70.522 17.8964C70.522 16.6822 71.6346 15.8687 73.2855 15.8687C74.8227 15.8687 76.342 16.4429 77.9271 17.6332L77.957 17.6572L79.6019 15.3423L79.6199 15.3124L79.596 15.2885C77.7776 13.829 75.7259 13.1172 73.3333 13.1172C69.8521 13.1172 67.4236 15.1928 67.4236 18.1656C67.4236 21.3657 69.4453 22.4603 73.1778 23.3635C76.4557 24.1172 77.0299 24.811 77.0299 25.9834C77.0299 27.2874 75.8515 28.1308 74.0212 28.1308C72.0653 28.1308 70.3964 27.4429 68.6199 25.9057L68.59 25.8817L66.7238 28.1009L66.7537 28.1248C68.7754 29.9312 71.2637 30.8883 73.9494 30.8883C77.6998 30.8883 80.1283 28.8486 80.1283 25.6903C80.1283 22.5321 77.9092 21.4016 74.5715 20.5941" fill="white"/>
<path d="M84.8418 13.3623H81.7493V30.6369H92.1392V27.8136H84.8418V13.3623Z" fill="white"/>
<path d="M103.061 13.2432H100.214L92.6416 30.5895L92.6177 30.6434H95.7939L97.5644 26.4922H105.645L107.38 30.6254L107.392 30.6494H110.664L103.073 13.2731L103.061 13.2491V13.2432ZM104.503 23.7347H98.6949L101.584 16.9876L104.497 23.7347H104.503Z" fill="white"/>
<path d="M123.757 25.1878L114.612 13.3743L114.6 13.3623H111.747V30.6369H114.791V18.4705L124.206 30.6249L124.218 30.6369H126.802V13.3623H123.757V25.1878Z" fill="white"/>
<path d="M129.835 22.6335H139.716V21.2757H129.835V14.7499H140.721V13.3921H128.429V30.6069H140.835V29.2491H129.835V22.6335Z" fill="white"/>
<path d="M149.454 22.9388H155.465V27.5326C154.472 28.3342 152.576 29.5364 150.106 29.5364C146.685 29.5364 143 27.1857 143 22.0296V21.9818C143 18.2912 145.65 14.475 150.082 14.475C152.337 14.475 153.743 15.2466 155.16 16.401L155.507 16.6822L156.399 15.5995L156.058 15.3184C154.461 13.9965 152.84 13.1172 150.106 13.1172C147.66 13.1172 145.452 14.0862 143.879 15.8507C142.408 17.5016 141.594 19.6909 141.594 22.0057V22.0536C141.594 27.2575 145.088 30.8942 150.082 30.8942C152.499 30.8942 154.855 29.9551 156.722 28.2624L156.865 28.1308V21.5392H149.448V22.9448L149.454 22.9388Z" fill="white"/>
<path d="M159.904 29.2491V22.6335H169.785V21.2757H159.904V14.7499H170.79V13.3921H158.498V30.6069H170.904V29.2491H159.904Z" fill="white"/>
<path d="M28.807 0H11.9331L0 11.9331V32.0669L11.9331 44H28.807L40.7401 32.0669V11.9331L28.807 0ZM39.0473 11.975L32.1207 14.8461L25.8999 8.62534L28.7711 1.69875L39.0533 11.981L39.0473 11.975ZM15.8151 20.3192V24.8532H15.8271L19.7569 28.1909V30.4638L15.8211 34.627H15.8091L9.36705 28.1909V16.4312L11.8135 17.4421V18.6623L15.8091 20.3192H15.8151ZM17.0353 24.8412V18.3812L9.80369 15.3844L15.8151 9.37303H24.9249L30.9364 15.3844L23.7047 18.3812V24.8412H17.0353ZM20.9831 28.1849L24.919 24.8472H24.9309V20.3132L28.9326 18.6563V17.4361L31.379 16.4252V28.1849L24.9369 34.627H24.9249L20.9891 30.4579V28.1789L20.9831 28.1849ZM27.6346 1.22621L24.7694 8.1528H15.9766L13.1055 1.22621H27.6346ZM11.975 1.68679L14.8461 8.61338L8.61936 14.8401L1.69276 11.969L11.981 1.68679H11.975ZM1.2262 13.1055L8.1528 15.9766V28.0353L1.2262 30.9065V13.1115V13.1055ZM1.69276 32.031L8.61936 29.1599L14.8401 35.3806L11.969 42.3072L1.68679 32.031H1.69276ZM13.0876 42.8037L15.9706 35.8532L20.373 39.1849L24.7694 35.8532L27.6525 42.8037H13.0876ZM28.7711 42.3072L25.8999 35.3806L32.1267 29.1599L39.0533 32.031L28.7711 42.3072ZM39.5199 30.9005L32.5933 28.0294V15.9647L39.5199 13.0935V30.8945V30.9005Z" fill="white"/>
</svg>
